PathFileType	4	(X/Y/Z)	C:\Users\Basilio\Documents\Thesis Gigler\squatting_fais\c3dfiles\073\SJ_pre2\markers_experimental.trc
DataRate	CameraRate	NumFrames	NumMarkers	Units	OrigDataRate	OrigDataStartFrame	OrigNumFrames
200.000000	200.000000	4	61	mm	200.000000	567	1514
Frame#	Time	FHD			LBHD			RBHD			C7			T10			CLAV			LSHO			LUUPA			LMUPA			LDUPA			LLEP			LMEP			LRAD			LUL			LRFIN			RSHO			RUPA1			RMUPA			RDUPA			RLEP			RMEP			RRAD			RUL			RUFIN			LASI			RASI			USACR			LSACR			RSACR			LTHI1			LTHI2			LTHI3			LTHI4			LLFC			LMFC			LTIB1			LTIB2			LTIB3			LTIB4			LLMAL			LMMAL			LHEE			LMT1			LMT2			LMT5			RTHI			RTHI2			RTHI3			RTHI4			RLFC			RMFC			RTIB1			RTIB2			RTIB3			RTIB4			RLMAL			RMMAL			RHEE			RMT1			RMT2			RMT5			
		X1	Y1	Z1	X2	Y2	Z2	X3	Y3	Z3	X4	Y4	Z4	X5	Y5	Z5	X6	Y6	Z6	X7	Y7	Z7	X8	Y8	Z8	X9	Y9	Z9	X10	Y10	Z10	X11	Y11	Z11	X12	Y12	Z12	X13	Y13	Z13	X14	Y14	Z14	X15	Y15	Z15	X16	Y16	Z16	X17	Y17	Z17	X18	Y18	Z18	X19	Y19	Z19	X20	Y20	Z20	X21	Y21	Z21	X22	Y22	Z22	X23	Y23	Z23	X24	Y24	Z24	X25	Y25	Z25	X26	Y26	Z26	X27	Y27	Z27	X28	Y28	Z28	X29	Y29	Z29	X30	Y30	Z30	X31	Y31	Z31	X32	Y32	Z32	X33	Y33	Z33	X34	Y34	Z34	X35	Y35	Z35	X36	Y36	Z36	X37	Y37	Z37	X38	Y38	Z38	X39	Y39	Z39	X40	Y40	Z40	X41	Y41	Z41	X42	Y42	Z42	X43	Y43	Z43	X44	Y44	Z44	X45	Y45	Z45	X46	Y46	Z46	X47	Y47	Z47	X48	Y48	Z48	X49	Y49	Z49	X50	Y50	Z50	X51	Y51	Z51	X52	Y52	Z52	X53	Y53	Z53	X54	Y54	Z54	X55	Y55	Z55	X56	Y56	Z56	X57	Y57	Z57	X58	Y58	Z58	X59	Y59	Z59	X60	Y60	Z60	X61	Y61	Z61	

568	2.835	100.3514785766602	1015.492919921875	-971.1192016601565	-37.23017120361329	1001.483215332031	-990.7644042968752	-58.72633743286134	991.0093383789065	-857.286560058594	-89.82460021972658	950.9016113281252	-921.495788574219	-390.1138000488282	820.0816040039065	-911.6457519531252	-65.04005432128908	798.1152343750002	-921.3475341796877	-60.51137924194337	826.6675415039065	-1086.856689453125	-143.8028259277344	832.8361816406252	-1214.0908203125	-173.4712829589844	792.976989746094	-1221.906860351563	-187.363021850586	829.0134887695315	-1268.665771484375	-275.9298706054688	809.6245727539065	-1331.496948242188	-324.3077087402344	878.2847900390627	-1315.116821289063	-449.650115966797	705.3093872070314	-1153.934204101563	-427.1247558593751	644.1818847656251	-1191.208740234375	-432.7138061523439	691.7581787109376	-1094.417114257813	-57.786922454834	818.061462402344	-757.8896484375001	-142.788558959961	845.0571899414065	-613.3455810546876	-171.9703063964844	807.479187011719	-599.6868896484376	-187.926742553711	850.6096801757815	-560.2247924804689	-263.6046142578126	828.5627441406252	-503.0038146972657	-320.9527587890626	892.8378906250002	-543.8259277343751	-453.7754821777345	711.6160278320314	-658.9971923828126	-420.8444824218751	652.0775146484376	-624.8491821289064	-419.8064880371095	690.1024169921876	-721.1969604492189	-415.4514770507814	627.0618286132814	-1037.916259765625	-406.9634094238282	604.9614257812501	-797.3189697265627	-507.2875366210939	767.5617675781251	-898.1331787109377	-538.1503295898439	757.3678588867189	-924.9548339843752	-537.9842529296876	754.4483032226564	-869.1649169921877	-339.0654602050782	532.1791381835939	-1159.468627929688	-253.1448669433594	530.2650146484376	-1168.064575195313	-230.8056030273438	562.9992675781251	-1138.175048828125	-220.3229064941407	477.8425903320314	-1170.564331054688	-183.9200592041016	440.2299194335939	-1177.716674804688	-161.560287475586	423.3236389160157	-1053.992919921875	-203.0413055419922	252.1608276367188	-1139.377319335938	-279.3261413574219	252.5016632080079	-1186.883178710938	-249.0176849365235	226.2378387451172	-1167.875854492188	-287.9611206054688	159.3381042480469	-1133.7353515625	-402.7243041992189	87.88045501708986	-1158.901123046875	-379.7265319824219	104.2968902587891	-1072.208251953125	-465.8792419433595	54.61073684692384	-1114.396484375	-236.4061126708985	53.76185989379884	-1106.392456054688	-240.5097656250001	53.98788070678712	-1144.707641601563	-280.7920532226563	37.01871871948243	-1196.407470703125	-411.5549621582032	537.5180664062501	-669.1587524414064	-346.2209472656251	537.7669067382814	-660.0263671875001	-327.9387512207032	564.7657470703126	-668.5010986328126	-295.0284423828126	473.1286621093751	-650.9830932617189	-176.5298156738282	403.9867553710939	-644.2575683593751	-155.7818298339844	384.102752685547	-762.4965820312501	-207.0823974609376	250.2478790283204	-724.8696899414064	-280.5365600585938	204.6132812500001	-658.3710327148439	-261.7050170898438	188.3427734375	-699.2861328125001	-300.9058532714844	161.1840515136719	-731.1612548828126	-418.6430053710939	85.84643554687501	-676.3526611328126	-398.179412841797	96.47644042968753	-764.8132324218751	-492.1853332519532	50.41399383544923	-733.8336181640626	-263.7194519042969	53.90039062500001	-700.7577514648439	-271.7941284179688	54.91616058349611	-660.9652709960939	-320.8491210937501	36.74676895141602	-618.5696411132814	
569	2.84	100.265007019043	1015.480529785156	-971.114196777344	-37.39110946655274	1001.40283203125	-990.7688598632815	-58.80825424194337	990.956481933594	-857.4532470703127	-89.88577270507814	950.8357543945315	-921.4381103515627	-390.1464233398439	820.022888183594	-911.5169677734377	-65.1078338623047	798.0227050781252	-921.285827636719	-60.60880279541017	826.5157470703127	-1086.839965820313	-143.8800964355469	832.7295532226565	-1213.984375	-173.5425567626953	792.876647949219	-1221.888549804688	-187.3667755126953	828.9339599609377	-1268.6552734375	-276.0112915039063	809.4533691406252	-1331.429809570313	-324.4316101074219	878.1531372070315	-1315.025268554688	-449.7727355957032	705.2261352539064	-1153.779663085938	-427.1989135742189	644.0853271484376	-1191.15771484375	-432.8649902343751	691.7537841796876	-1094.300048828125	-57.79345703125001	817.9561767578127	-757.8227539062501	-142.781982421875	844.9844360351565	-613.3220825195314	-171.9699249267578	807.4360961914065	-599.5311889648439	-187.9513702392578	850.5701904296877	-560.1412353515626	-263.5531311035157	828.5156250000002	-502.9202270507814	-320.9267578125001	892.788024902344	-543.7426757812501	-453.7128906250001	711.5443115234376	-658.9196166992189	-420.8471679687501	651.9863891601564	-624.7174072265626	-419.7893371582032	690.0271606445314	-721.0564575195314	-415.8890380859376	627.3826904296876	-1038.22265625	-406.4918518066407	605.0376586914064	-797.6973876953127	-507.5408630371095	767.5368652343751	-897.8945312500002	-538.4929809570314	757.2934570312501	-924.6467285156252	-538.0397949218751	754.3576660156251	-869.0227050781252	-339.1505432128907	532.1546630859376	-1159.3359375	-253.2044830322266	530.2420654296876	-1167.923461914063	-230.8282623291016	563.0036010742189	-1137.866943359375	-220.4044799804688	477.8181457519532	-1170.31591796875	-183.9619140625	440.3208923339845	-1177.540161132813	-161.6569519042969	423.347137451172	-1053.705932617188	-203.0718078613282	252.1861114501954	-1139.184692382813	-279.3691101074219	252.5225372314454	-1186.785400390625	-248.9753417968751	226.2956848144532	-1167.77490234375	-287.9493713378907	159.325424194336	-1133.65185546875	-402.7675781250001	87.89344787597658	-1158.852661132813	-379.7121582031251	104.258529663086	-1072.178100585938	-465.8717041015626	54.61433410644533	-1114.423950195313	-236.4608154296876	53.77565383911134	-1106.335205078125	-240.5788879394532	53.9587745666504	-1144.689208984375	-280.9478759765626	36.46966171264649	-1196.275512695313	-411.5475463867189	537.4320678710939	-669.1545410156251	-346.2164001464844	537.7124023437501	-659.9861450195314	-327.9716186523438	564.7214965820314	-668.4017944335939	-295.0007324218751	473.0702514648439	-650.9554443359376	-176.4526977539063	403.9526977539064	-644.2793579101564	-155.7817077636719	384.0787658691407	-762.4812011718751	-207.0290679931641	250.2635955810547	-724.9171142578126	-280.5940246582032	204.5900573730469	-658.3776245117189	-261.6860656738282	188.273422241211	-699.2996215820314	-300.8944396972657	161.2853393554688	-731.1764526367189	-418.665740966797	85.84181976318361	-676.3718872070314	-398.204071044922	96.45809173583987	-764.8176269531251	-492.2136840820314	50.40906143188478	-733.8165893554689	-263.7310791015626	53.89281463623048	-700.7825317382814	-271.7820739746094	54.91392135620119	-660.9010620117189	-320.8417663574219	36.76427459716798	-618.5843505859376	
570	2.845	100.4896850585938	1015.459350585938	-971.2712402343752	-37.40810012817384	1001.30810546875	-990.7314453125002	-58.83018493652345	990.825378417969	-857.3082275390627	-89.9593963623047	950.7693481445315	-921.4234008789065	-390.1995849609376	819.9641723632815	-911.3721923828127	-65.16216278076173	797.9265136718752	-921.2119140625002	-60.62180709838869	826.4285888671877	-1086.779541015625	-143.9544830322266	832.4859619140627	-1213.860107421875	-173.5528411865235	792.7429809570315	-1221.8642578125	-187.5269165039063	828.7781982421877	-1268.6064453125	-276.0658264160157	809.3020019531252	-1331.346069335938	-324.4992065429688	878.0069580078127	-1314.9521484375	-449.901824951172	705.1732788085939	-1153.607299804688	-427.4074096679689	643.9196166992189	-1191.041015625	-432.8703002929689	691.6839599609376	-1094.22314453125	-57.8360061645508	817.875915527344	-757.7348022460939	-142.7483062744141	844.9284667968752	-613.2067260742189	-171.9661254882813	807.3630981445315	-599.4382324218751	-187.9279479980469	850.5219726562502	-560.0539550781251	-263.5173034667969	828.4826660156252	-502.8095703125001	-320.9063720703126	892.7464599609377	-543.6453247070314	-453.7634277343751	711.5028076171876	-658.7316284179689	-420.8358764648439	651.9172363281251	-624.5755004882814	-419.8368530273439	689.9559936523439	-720.9680786132814	-416.2407836914064	627.1207275390626	-1038.135864257813	-406.6663818359376	604.7844238281251	-797.632263183594	-507.5309143066407	767.4517822265626	-897.7454223632815	-538.5630493164064	757.2302246093751	-924.4895019531252	-538.0553588867189	754.3062744140626	-868.8452148437502	-339.2051391601563	532.1481323242189	-1159.158203125	-253.2451477050782	530.2692871093751	-1167.735473632813	-230.881820678711	563.0112304687501	-1137.664794921875	-220.4262084960938	477.8627014160157	-1170.121704101563	-183.9849853515625	440.309783935547	-1177.298583984375	-161.6700744628907	423.3189697265626	-1053.449951171875	-203.0800933837891	252.1959991455079	-1139.049560546875	-279.3148193359376	252.5384063720704	-1186.622680664063	-249.0156707763672	226.3054962158204	-1167.657836914063	-287.9299316406251	159.3427886962891	-1133.548828125	-402.7271728515626	87.89064788818361	-1158.853881835938	-379.6978149414063	104.2255477905274	-1072.172241210938	-465.8713378906251	54.60214996337892	-1114.383422851563	-236.4507293701172	53.77024841308595	-1106.324951171875	-240.5372161865235	53.96162033081056	-1144.711669921875	-280.9866943359376	36.43806457519532	-1196.286254882813	-411.5331420898439	537.3951416015626	-669.0027465820314	-346.1980590820313	537.6280517578126	-659.8690185546876	-327.9617004394532	564.6398925781251	-668.3637695312501	-294.9877624511719	473.0098876953126	-650.8797607421876	-176.4230041503907	403.9166259765626	-644.2634887695314	-155.8343658447266	384.0616760253907	-762.5220336914064	-207.0069580078126	250.2265167236329	-724.8798828125001	-280.5359497070313	204.5701141357422	-658.3699340820314	-261.6699523925782	188.2545623779297	-699.3051757812501	-300.8931579589844	161.2869567871094	-731.1943969726564	-418.6401977539064	85.83630371093751	-676.3458251953126	-398.2411193847657	96.48845672607425	-764.8196411132814	-492.2186279296876	50.40379333496095	-733.8285522460939	-263.7296447753907	53.88100051879884	-700.7931518554689	-271.8099670410157	54.93607711791994	-660.9566650390626	-320.8215332031251	36.74948120117188	-618.6053466796876	
571	2.85	100.5231475830078	1015.398254394531	-971.2928466796877	-37.46664428710938	1001.206726074219	-990.7285156250002	-58.92689132690431	990.7143554687502	-857.4009399414065	-89.99720764160158	950.6914062500002	-921.3591308593752	-390.2768859863282	819.8403320312502	-911.254821777344	-65.17275238037111	797.8680419921877	-921.144470214844	-60.66976547241212	826.3424072265627	-1086.700927734375	-144.0288696289063	832.275817871094	-1213.794555664063	-173.7222137451172	792.5679931640627	-1221.802001953125	-187.6638336181641	828.6345825195315	-1268.584106445313	-276.2285156250001	809.1362304687502	-1331.220092773438	-324.5433654785157	877.8886718750002	-1314.940795898438	-450.0351562500001	705.1111450195314	-1153.523559570313	-427.5460510253907	643.7056274414064	-1190.995727539063	-433.0170288085939	691.6355590820314	-1094.039794921875	-57.84638595581056	817.7961425781252	-757.6951904296876	-142.7920837402344	844.8669433593752	-613.1560668945314	-171.9990997314453	807.3067016601565	-599.3269653320314	-187.9226379394532	850.459411621094	-559.9530639648439	-263.5643310546876	828.4277343750002	-502.7076110839845	-320.9117126464844	892.6904296875002	-543.5783691406251	-453.7561035156251	711.4359741210939	-658.6431274414064	-420.8280334472657	651.8714599609376	-624.4285888671876	-419.8053588867189	689.8856201171876	-720.8699951171876	-416.1191406250001	627.1382446289064	-1037.909790039063	-406.6267395019532	604.8393554687501	-797.4151000976565	-507.6209411621095	767.4066162109376	-897.6155395507815	-538.6000366210939	757.1517333984376	-924.329284667969	-538.1441650390626	754.2275390625001	-868.6826782226565	-339.2675781250001	532.0882568359376	-1158.937255859375	-253.3197479248047	530.2439575195314	-1167.572021484375	-230.9148559570313	562.9980468750001	-1137.465942382813	-220.3538055419922	477.8978576660157	-1169.919921875	-184.009017944336	440.3596801757814	-1177.111328125	-161.6852416992188	423.3493652343751	-1053.132690429688	-203.1130828857422	252.2088775634766	-1138.863647460938	-279.2918395996094	252.5499877929688	-1186.493530273438	-249.0135498046876	226.3617248535157	-1167.574462890625	-287.9710083007813	159.3409118652344	-1133.496337890625	-402.801727294922	87.87503814697267	-1158.803588867188	-379.6656188964844	104.2258605957032	-1072.149169921875	-465.8869934082032	54.58980178833009	-1114.371704101563	-236.4333801269532	53.76528167724611	-1106.340087890625	-240.6156005859376	53.91615295410158	-1144.698974609375	-280.7335205078126	37.01420593261719	-1196.34033203125	-411.4966735839845	537.2707519531251	-668.9138183593751	-346.1699829101563	537.5645141601564	-659.8253173828126	-327.9547729492188	564.5505371093751	-668.3467407226564	-294.9314270019532	472.9335021972657	-650.8554687500001	-176.4319000244141	403.8764953613282	-644.2927246093751	-155.7850341796875	384.0551757812501	-762.5202026367189	-206.9517669677735	250.2224731445313	-724.8793945312501	-280.5532531738282	204.543197631836	-658.3980712890626	-261.6593017578126	188.2342681884766	-699.2890625000001	-300.8766479492188	161.1950225830078	-731.1928710937501	-418.6414184570314	85.82455444335939	-676.3439331054689	-398.2302856445314	96.43770599365237	-764.8187255859376	-492.1824340820314	50.40679931640626	-733.8256225585939	-263.7148742675782	53.89701080322267	-700.7681274414064	-271.8126831054688	54.90962982177736	-660.9155273437501	-320.8132324218751	36.76251983642579	-618.6023559570314	
